classDiagram

    class Utente {
        +string id_utente
        +string nome_utente
        +string email
        +List~ProgettoMusicale~ progetti
        +crea_progetto(titolo: string, genere_musicale: string) ProgettoMusicale
        +progetti_per_genere() Dict ~string~, ~int~
        +conta_progetti_totali() int
        +strumento_piu_usato() StrumentoVirtuale
    }

    class ProgettoMusicale {
        +string id_progetto
        +string titolo_progetto
        +date data_creazione
        +string genere_musicale
        +List~TracciaAudio~ tracce
        +aggiungi_traccia(nome_traccia: string) TracciaAudio
        +percentuale_tracce_con_effetti() float
        +effetto_piu_usato() TipoEffetto
    }

    class TracciaAudio {
        +string id_traccia
        +string nome_traccia
        +float durata_secondi
        +int volume_db
        +string sequenza_note_manuali
        +StrumentoVirtuale strumento_utilizzato
        +List~EffettoAudio~ effetti_applicati
        +aggiungi_strumento(strumento: StrumentoVirtuale) None
        +applica_effetto(effetto: EffettoAudio) None
        +rimuovi_effetto(effetto: EffettoAudio) None
        +imposta_sequenza_note(note: string) None
        +modifica_volume(nuovo_volume_db: int) None
        +ha_effetti() bool
    }

    class StrumentoVirtuale {
        +string id_strumento
        +string nome_strumento
        +TipoStrumento tipo_strumento_virtuale
    }

    class EffettoAudio {
        +string id_effetto
        +string nome_effetto
        +TipoEffetto tipo_effetto_audio
    }

    class TipoStrumento {
        <<enumeration>>
        BATTERIA
        CHITARRA
        BASSO
    }

    class TipoEffetto {
        <<enumeration>>
        RIVERBERO
        DELAY
        DISTORSIONE
    }

    Utente "1" -- "*" ProgettoMusicale : possiede
    ProgettoMusicale "1" -- "*" TracciaAudio : contiene
    TracciaAudio "1" -- "1" StrumentoVirtuale : utilizza
    TracciaAudio "1" -- "*" EffettoAudio : applica

    StrumentoVirtuale --> TipoStrumento
    EffettoAudio --> TipoEffetto
